# xmcd
#
# Track frame offsets: 
#        150
#        22375
#        39830
#        55272
#        72670
#        91052
#        109585
#        126807
#        143770
#
# Disc length: 2168 seconds
#
# Revision: 0
# Processed by: cddbd v1.5.2PL0 Copyright (c) Steve Scherf et al.
# Submitted via: ExactAudioCopy v0.99pb5
#
DISCID=7a087609
DTITLE=100 Proof Aged In Soul - 100 Proof Aged In Soul
DYEAR=1972
DGENRE=Soul
TTITLE0=Every Thing Good Is Bad
TTITLE1=Since You Been Gone
TTITLE2=Nothing Sweeter Than Love
TTITLE3=Ghetto Girl
TTITLE4=Words
TTITLE5=I Don't Care If I Never Get Over You
TTITLE6=Don't Scratch Where It Don't Itch
TTITLE7=Don't You Wake Me
TTITLE8=Never My Love
EXTD=
EXTT0=
EXTT1=
EXTT2=
EXTT3=
EXTT4=
EXTT5=
EXTT6=
EXTT7=
EXTT8=
PLAYORDER=
